# xmcd
#
# Track frame offsets:
#	202
#	16795
#	30610
#	45602
#	55047
#	67200
#	78175
#	93800
#	111580
#	125245
#	139612
#	150705
#	170192
#
# Disc length: 2451 seconds
#
# Revision: 3
# Processed by: cddbd v1.5PL3 Copyright (c) Steve Scherf et al.
# Submitted via: MusicManager 7.0.4.0 
#
DISCID=ae09910d
DTITLE=Don Williams - Borrowed Tales
DYEAR=1995
DGENRE=Country
TTITLE0=Fever
TTITLE1=Crying In The Rain
TTITLE2=Lay Down Sally
TTITLE3=My Rifle, My Pony And Me
TTITLE4=I'll Be There (If You Ever Want Me)
TTITLE5=Reason To Believe
TTITLE6=Games People Play
TTITLE7=If You Could Read My Mind
TTITLE8=Peace Train
TTITLE9=The Long Black Veil
TTITLE10=The Letter
TTITLE11=You've Got A Friend
TTITLE12=Pretend
EXTD=
EXTT0=
EXTT1=
EXTT2=
EXTT3=
EXTT4=
EXTT5=
EXTT6=
EXTT7=
EXTT8=
EXTT9=
EXTT10=
EXTT11=
EXTT12=
PLAYORDER=
